<?xml version="1.0" encoding="UTF-8"?>
<!DOCTYPE svg PUBLIC "-//W3C//DTD SVG 1.1//EN" "http://www.w3.org/Graphics/SVG/1.1/DTD/svg11.dtd">
<!-- Creator: CorelDRAW -->
<svg xmlns="http://www.w3.org/2000/svg" xml:space="preserve" width="901px" height="187px" version="1.1" style="shape-rendering:geometricPrecision; text-rendering:geometricPrecision; image-rendering:optimizeQuality; fill-rule:evenodd; clip-rule:evenodd"
viewBox="0 0 888.7 184.45"
 xmlns:xlink="http://www.w3.org/1999/xlink"
 xmlns:xodm="http://www.corel.com/coreldraw/odm/2003">
 <defs>
  <style type="text/css">
   <![CDATA[
    .fil3 {fill:black}
    .fil1 {fill:#152B7E}
    .fil0 {fill:#5DA6D6}
    .fil4 {fill:white}
    .fil2 {fill:white}
   ]]>
  </style>
 </defs>
 <g id="Layer_x0020_1">
  <metadata id="CorelCorpID_0Corel-Layer"/>
  <path class="fil0" d="M72.35 0c-0.7,1.72 -0.28,80.56 -0.27,102.34l-0.01 76.9 82.7 -21.68c2,3.28 6.65,9.45 9.08,13 1.58,2.3 3.03,4.36 4.58,6.47 0.99,1.36 3.92,5.93 4.82,6.52l0.03 -30.65c2.09,-1.47 12.18,-2.89 15.15,-4.35 0.23,-23.54 -0.02,-47.28 -0.01,-70.86l0.03 -49.61c-0.01,-4.41 0.82,-4.02 -3.45,-4.02l-63.26 0c-1.22,0 -1.87,0.19 -2.98,-0.24l-0.05 -17.25 -46.36 -6.57z"/>
  <path class="fil1" d="M66.21 18.36l-35.48 -2.12 35.57 160.55c0.46,-3.3 0.11,-74.39 0.07,-79.19 -0.08,-8.62 0.46,-77.2 -0.16,-79.24z"/>
  <polygon class="fil1" points="0,40.46 58.86,176.53 31.01,40.29 "/>
  <path class="fil2" d="M165.3 66.32c0.16,-0.14 0.51,-0.34 0.71,-0.47 2.59,-1.77 4.4,-3.82 5.98,-6.59 0.28,-0.48 0.55,-1.03 0.76,-1.55 0.19,-0.46 0.51,-1.17 0.62,-1.67 -0.17,0.04 -0.64,0.34 -0.82,0.44 -0.79,0.45 -1.58,0.85 -2.41,1.24 -2.63,1.24 -5.38,2.14 -8.26,2.76 -0.18,0.04 -0.35,0.12 -0.48,0.01 -0.25,-0.19 -0.65,-0.68 -0.92,-0.92 -0.12,-0.1 -0.19,-0.16 -0.32,-0.28 -1.7,-1.53 -4.03,-2.94 -6.63,-3.75 -7.03,-2.2 -14.14,-0.27 -19.14,4.75l-0.58 0.63c-0.37,0.38 -0.77,0.89 -1.1,1.34 -1.43,1.98 -2.38,3.85 -3.12,6.66 -0.54,2.05 -0.7,4.5 -0.42,6.66l0.34 2.08c-0.44,0.03 -1.27,-0.08 -1.74,-0.11 -3.38,-0.24 -7.49,-1.04 -10.7,-2.01 -7.27,-2.19 -13.3,-5.55 -18.91,-10.15 -0.35,-0.28 -0.65,-0.57 -0.99,-0.84 -0.62,-0.5 -2.28,-2.09 -2.79,-2.63 -0.74,-0.78 -1.49,-1.55 -2.21,-2.36 -0.18,-0.21 -1.12,-1.39 -1.23,-1.46 -0.16,0.13 -0.67,1.18 -0.8,1.47 -0.75,1.61 -1.33,3.32 -1.55,5.14 -0.36,2.86 -0.25,5.37 0.52,8 0.78,2.69 1.94,4.72 3.46,6.64 0.17,0.21 0.33,0.4 0.51,0.59l0.55 0.58c0.71,0.77 1.51,1.46 2.36,2.1 0.14,0.1 0.56,0.34 0.61,0.48 -0.6,0.02 -1.86,-0.13 -2.44,-0.25 -1.96,-0.42 -3.23,-0.76 -5.03,-1.62 -0.19,-0.1 -0.73,-0.42 -0.89,-0.43 -0.12,3.56 0.96,7.01 2.67,9.88 0.42,0.7 1.59,2.37 2.24,3 0.2,0.2 0.31,0.35 0.49,0.53l0.82 0.78c0.1,0.08 0.16,0.14 0.27,0.23 1.58,1.29 3.21,2.35 5.18,3.17 0.48,0.2 1.02,0.4 1.54,0.55 0.57,0.17 1.08,0.28 1.68,0.42l-0.21 0.12c-1.96,0.51 -4.03,0.64 -6.04,0.51 -0.77,-0.06 -1.5,-0.24 -2.05,-0.27 0,0.44 0.88,2.31 1.09,2.73 0.44,0.87 0.92,1.64 1.42,2.37 0.72,1.03 1.35,1.68 2.19,2.56l1.5 1.33c1.29,1.03 3.02,2.08 4.85,2.77 1.79,0.68 2.72,0.85 4.56,1.14 0.28,0.04 0.59,0.05 0.88,0.08 0.29,0.03 0.62,0 0.89,0.03 -0.01,0.13 -0.19,0.22 -0.27,0.27l-0.98 0.73c-0.41,0.29 -0.87,0.62 -1.32,0.9 -0.45,0.29 -0.91,0.59 -1.4,0.87 -0.48,0.28 -0.94,0.53 -1.43,0.81 -4.43,2.48 -10.73,4.21 -15.81,4.38 -0.9,0.03 -2.35,0.12 -3.26,0.04 -0.34,-0.03 -0.7,-0.04 -1.05,-0.05 -0.64,-0.03 -1.55,-0.18 -2.07,-0.18 0.08,0.17 0.62,0.43 0.79,0.54 1.91,1.16 3.83,2.22 5.89,3.14 1.22,0.53 2.4,1.01 3.67,1.5 1.92,0.74 3.92,1.28 5.93,1.79 2.74,0.7 6.16,1.18 8.98,1.36 2.51,0.15 5.04,0.08 7.55,-0.04 4.09,-0.18 9.15,-1.21 13.02,-2.48 1.32,-0.43 2.54,-0.87 3.76,-1.38 3.19,-1.31 7.19,-3.43 9.98,-5.53l1.49 -1.1c0.5,-0.38 0.93,-0.76 1.41,-1.13l1.4 -1.2c0.58,-0.53 1.13,-1.02 1.68,-1.57 0.64,-0.64 1.31,-1.26 1.9,-1.96 0.5,-0.58 1.03,-1.12 1.52,-1.71 0.77,-0.94 1.56,-1.9 2.27,-2.9 2.22,-3.12 3.07,-4.54 4.89,-8 0.58,-1.13 1.12,-2.37 1.62,-3.55 1.57,-3.74 2.83,-7.91 3.48,-11.99 0.23,-1.42 0.52,-3.1 0.58,-4.58 0.04,-0.81 0.14,-1.64 0.15,-2.45 0.01,-0.85 0.01,-1.69 0.01,-2.55 0,-1.76 -0.29,-1.35 0.54,-1.97 0.5,-0.38 0.96,-0.77 1.44,-1.15 0.47,-0.37 0.97,-0.79 1.38,-1.2 1.98,-1.93 3.18,-3.15 4.88,-5.42 0.15,-0.19 1,-1.36 1.02,-1.5 -0.13,0.01 -0.97,0.39 -1.18,0.48 -2.75,1.11 -5.71,1.93 -8.67,2.32l-0.67 0.06c-0.01,-0.01 -0.02,0 -0.03,-0.01z"/>
  <path class="fil3" d="M439.64 24.88c-3.08,-0.82 -28.97,-0.29 -34.07,-0.18 -0.14,4.77 -6.53,44.89 -7.7,54.05 -0.24,1.93 0.15,3.18 -1.74,3.31 -2.12,0.15 -1.84,-0.96 -2.18,-2.82 -2.22,-12.58 -6.13,-29.53 -8.77,-42.49 -0.61,-2.97 -1.26,-5.74 -1.82,-8.69 -0.81,-4.28 0.68,-3.39 -6.7,-3.38 -6.76,0 -13.52,0 -20.28,0 -1.68,6.19 -10.88,56.05 -11.91,57 -0.36,0.33 -1.16,0.45 -1.72,0.37 -1.55,-0.23 -0.87,-0.05 -1.2,-1l-1.62 -11.32c-1.94,-12.98 -5.51,-33.65 -6.59,-45.05l-34.03 0.01 17.21 92.98c3.09,0.62 32.45,0.16 40.28,0.17 2.5,0 4.23,0.47 4.89,-0.54 0.42,-0.65 5.51,-35.09 6.4,-39.51l2.84 0 6.44 40.05 45.31 -0.15 16.96 -92.81z"/>
  <path class="fil3" d="M497.49 168.28l-0.03 -7.15c3.47,-0.06 6.98,-0.01 10.46,-0.01 3.4,0 6.91,-0.12 6.94,3.47 0.04,4.11 -4.47,3.7 -6.73,3.7 -3.43,0 -7.26,0.16 -10.64,-0.01zm-0.01 -23.7c3.37,-0.09 6.85,-0.01 10.24,-0.01 3.19,0 6.9,-0.2 6.9,3.29 0,3.43 -3.76,3.26 -6.9,3.26 -3.26,0 -7,0.17 -10.25,-0.03l0.01 -6.51zm-18.91 -12.01l-0.01 50.16 33.24 0c9.06,0 17.12,-2.15 20.54,-8 2.59,-4.44 2.43,-11.7 -2.04,-16.01 -1.41,-1.36 -2.73,-1.97 -4.19,-3.12 0.04,-1.21 0.34,-1.25 1.22,-1.78 5.68,-3.5 6.93,-10.25 3.81,-16.12 -2.85,-5.36 -10.01,-7.58 -18.53,-7.58l-34.05 0 0.01 2.45z"/>
  <path class="fil3" d="M556.22 145.84c3.34,-0.13 7.31,-0.12 10.65,-0.02 3.42,0.11 5.54,1.57 5.5,5.1 -0.04,3.41 -2.2,4.83 -5.71,4.9 -3.38,0.05 -7.09,0.09 -10.47,-0.03l0.03 -9.95zm-18.92 -13.27l-0.01 50.16c2.57,0 17.66,0.18 18.86,-0.11l0.05 -12.71 11.86 -0.02c2.1,3.62 4.39,8.93 6.6,12.79l18.51 0.06c-0.16,-0.76 -1.68,-3.31 -2.14,-4.2 -0.76,-1.43 -1.45,-2.67 -2.3,-4.21l-4.53 -8.52c2.92,-2.73 5.1,-4.78 6.46,-9.85 1.17,-4.32 0.7,-10.51 -0.82,-14.35 -3.1,-7.88 -10.26,-11.49 -21.55,-11.49l-31 0 0.01 2.45z"/>
  <path class="fil3" d="M823.24 70.13l-0.01 -17.62c5.91,-0.23 12.64,-0.17 18.53,-0.03 6.11,0.14 10.03,2.48 10.11,8.67 0.08,6.1 -3.59,8.85 -9.74,9.02 -6,0.17 -12.9,0.17 -18.89,-0.04zm-33.47 -41.12l-0.01 88.83c4.55,0 31.27,0.32 33.38,-0.2l0.1 -22.51 21 -0.03c3.71,6.41 7.77,15.8 11.69,22.64l32.77 0.1c-0.36,-1.94 -14.78,-26.89 -15.87,-29.97 5.16,-4.84 9.02,-8.45 11.43,-17.44 2.07,-7.66 1.24,-18.61 -1.45,-25.42 -5.49,-13.94 -18.18,-20.33 -38.17,-20.33l-54.88 0 0.01 4.33z"/>
  <path class="fil3" d="M696.61 29.01l-0.02 88.83c27.86,0 58.03,0.35 85.59,-0.02l0.02 -26.66c-17,-0.44 -35.29,0.36 -52.02,-0.11l-0.15 -8.74 47.45 -0.04c3.38,0 2.73,0.26 2.73,-3.07l0.03 -18.26 -50.17 -0.16 -0.03 -9.37c16.62,-0.18 36.14,0.46 52.06,-0.07l0.07 -26.59 -85.58 -0.07 0.02 4.33z"/>
  <path class="fil0" d="M353.35 132.57l-0.01 50.16c15.73,0 32.77,0.2 48.34,-0.01l0.01 -15.06c-9.61,-0.23 -19.93,0.21 -29.38,-0.05l-0.08 -4.94 26.79 -0.02c1.91,0 1.54,0.14 1.54,-1.74l0.02 -10.31 -28.33 -0.09 -0.02 -5.29c9.39,-0.1 20.41,0.26 29.4,-0.04l0.04 -15.02 -48.33 -0.04 0.01 2.45z"/>
  <path class="fil0" d="M421.56 164.69l-16.67 -0.05c-0.85,2.18 0.4,7.18 1.24,9.14 1.13,2.63 2.69,4.54 4.83,5.99 8.38,5.69 26.59,5.71 36.28,2.64 9.69,-3.07 13.72,-11.09 11.26,-20 -0.79,-2.86 -2.4,-4.9 -4.39,-6.42 -3.99,-3.05 -10.32,-3.95 -16.58,-4.84 -3.09,-0.43 -6.16,-0.88 -9.19,-1.39 -5.45,-0.93 -4.85,-4.12 -3.02,-5.38 2.24,-1.54 11.91,-2.23 14.59,1.75 0.52,0.77 0.6,1.44 0.92,1.93l16.79 0.02c-0.09,-14.54 -8.18,-18.88 -23,-19.54 -13.19,-0.59 -26.55,2.58 -28.46,14.04 -0.52,3.12 -0.18,6.61 0.88,9.3 4.3,10.9 24.03,9.01 30.96,11.65 3.58,1.37 2.76,4.46 -0.69,5.49 -3.26,0.99 -10.73,0.98 -13.64,-0.95 -1.71,-1.14 -1.29,-1.47 -2.11,-3.38z"/>
  <path class="fil3" d="M624.37 147.89l3.12 0c0.6,0.83 0.89,2.48 1.23,3.57 0.7,2.23 3.29,9.66 3.39,10.85l-12.37 0.03c0.09,-0.82 4.22,-13.61 4.63,-14.45zm-30.56 34.8c4.12,0.23 14.2,0.04 18.94,0.04 0.89,0 0.78,-0.78 1.47,-3.01 0.28,-0.93 0.69,-2.66 1.18,-3.43l21.12 -0.01c0.63,0.98 1.65,5.06 2.1,6.45l19.49 0c-0.15,-1.18 -3.93,-11.23 -4.65,-13.18 -1.65,-4.49 -3.12,-8.68 -4.77,-13.17l-9.64 -26.26 -26.32 0 -4.71 13.01c-4.02,10.6 -7.9,22.16 -11.88,32.99 -0.77,2.08 -1.75,4.58 -2.33,6.57z"/>
  <path class="fil3" d="M660.11 145.75c2.23,0.64 24.09,-0.43 24.81,0.3 1.02,1.04 -1.54,2.65 -2.15,3.11 -3.26,2.44 -6.82,5.59 -9.89,7.85l-13.23 10.37 -0.1 15.35 49.86 0 -0.03 -15.65c-1.51,-0.33 -19.44,-0.11 -24.05,-0.09 -0.19,0 -0.61,0.01 -0.79,-0.02 -1.48,-0.2 -0.68,-1.45 -0.01,-1.98l18.45 -14.38c0.87,-0.71 6.55,-4.89 6.7,-5.39l0.08 -15.07 -49.69 -0.03 0.04 15.63z"/>
  <path class="fil0" d="M227.73 132.57l-0.01 50.16c2.57,0 17.66,0.18 18.85,-0.11l0.05 -17.71 25.35 -0.01c3.14,0 2.78,0.75 2.79,-2.76l0 -10.63 -1.56 -0.19c-8.15,0.02 -19.1,0.24 -26.57,-0.01l0.01 -5.41c3.82,-0.04 28.26,0.28 29.28,-0.21l0.03 -15.29 -23.96 -0.28c-8.09,0 -16.18,0 -24.27,0l0.01 2.45z"/>
  <path class="fil3" d="M485.19 52.55c4.9,0.22 30.65,-0.84 32.61,0.35 1.11,1.95 -0.23,56.72 0.36,64.94l33.35 0 0.12 -65.09 32.96 -0.18 0.04 -27.89 -99.44 0 0 27.87z"/>
  <path class="fil3" d="M194.87 52.55c4.9,0.22 30.65,-0.84 32.6,0.35 1.11,1.95 -0.23,56.72 0.37,64.94l33.35 0 0.12 -65.09 32.96 -0.18 0.04 -27.89 -99.43 0 -0.01 27.87z"/>
  <path class="fil3" d="M590.63 52.55c4.91,0.22 30.65,-0.84 32.61,0.35 1.11,1.95 -0.23,56.72 0.37,64.94l33.34 0 0.12 -65.09 32.96 -0.18 0.04 -27.89 -99.43 0 -0.01 27.87z"/>
  <path class="fil0" d="M302.77 182.73l46.12 0 -0.01 -15.75 -27.09 -0.03c-0.78,-2.93 0.53,-33.88 -0.19,-36.66 -0.87,-0.38 -18.07,-0.17 -18.84,-0.17l0.01 51.39 0 1.22z"/>
  <path class="fil3" d="M735.93 132.57l-0.01 50.16 46.11 0 0.05 -15.75 -27.14 -0.01c-0.43,-4.89 -0.12,-29.84 -0.11,-36.68l-0.95 -0.18c-0.35,-0.02 -0.87,0 -1.23,0.01l-16.73 0 0.01 2.45z"/>
  <path class="fil3" d="M445.28 29.01l-0.01 88.83c4.55,0 31.27,0.32 33.38,-0.2l0.1 -4.5c0.3,-28.82 -0.04,-59.13 0,-88.17 -3.95,-0.73 -29.52,-0.29 -33.48,-0.29l0.01 4.33z"/>
  <path class="fil0" d="M279.93 132.57l-0.01 50.16c2.58,0 17.67,0.18 18.86,-0.11l0.05 -2.54c0.17,-16.28 -0.02,-33.39 0,-49.79 -0.12,-0.03 -0.2,-0.11 -0.23,-0.06l-18.68 -0.11 0.01 2.45z"/>
  <path class="fil3" d="M713.08 182.73c2.54,0 17.69,0.18 18.91,-0.11l-0.07 -52.33 -18.84 -0.17 0 51.39 0 1.22z"/>
  <path class="fil4" d="M823.24 70.13c5.99,0.21 12.89,0.21 18.89,0.04 6.15,-0.17 9.82,-2.92 9.74,-9.02 -0.08,-6.19 -4,-8.53 -10.11,-8.67 -5.89,-0.14 -12.62,-0.2 -18.53,0.03l0.01 17.62z"/>
  <path class="fil4" d="M556.19 155.79c3.38,0.12 7.09,0.08 10.47,0.03 3.51,-0.07 5.67,-1.49 5.71,-4.9 0.04,-3.53 -2.08,-4.99 -5.5,-5.1 -3.34,-0.1 -7.31,-0.11 -10.65,0.02l-0.03 9.95z"/>
  <path class="fil4" d="M497.49 168.28c3.38,0.17 7.21,0.01 10.64,0.01 2.26,0 6.77,0.41 6.73,-3.7 -0.03,-3.59 -3.54,-3.47 -6.94,-3.47 -3.48,0 -6.99,-0.05 -10.46,0.01l0.03 7.15z"/>
  <path class="fil4" d="M624.37 147.89c-0.41,0.84 -4.54,13.63 -4.63,14.45l12.37 -0.03c-0.1,-1.19 -2.69,-8.62 -3.39,-10.85 -0.34,-1.09 -0.63,-2.74 -1.23,-3.57l-3.12 0z"/>
  <path class="fil4" d="M497.47 151.09c3.25,0.2 6.99,0.03 10.25,0.03 3.14,0 6.9,0.17 6.9,-3.26 0,-3.49 -3.71,-3.29 -6.9,-3.29 -3.39,0 -6.87,-0.08 -10.24,0.01l-0.01 6.51z"/>
 </g>
</svg>
